<?xml version="1.0" encoding="UTF-8"?>
<svg id="Layer_1" data-name="Layer 1" xmlns="http://www.w3.org/2000/svg" viewBox="0 0 512.66795 56.05942">
  <g>
    <path d="M119.82143,24.46778c5.1933,0,8.683-3.09857,8.683-8.37894s-3.49123-8.37741-8.683-8.37741h-5.45457V24.4678h5.45457v-.00002ZM105.72664,.81604h14.44314c10.12227,0,17.06195,5.89002,17.06195,15.27125s-6.93815,15.27278-17.06195,15.27278h-14.44314V.81604Z" style="fill: #fff;"/>
    <polygon points="165.38464 24.68475 165.38464 31.36162 140.86047 31.36162 140.86047 .81757 164.81626 .81757 164.81626 7.49293 149.4136 7.49293 149.4136 12.64191 162.98432 12.64191 162.98432 19.09878 149.4136 19.09878 149.4136 24.68475 165.38464 24.68475" style="fill: #fff;"/>
    <path d="M189.2625,19.05599l-3.92668-9.77391-3.92668,9.77391h7.85336Zm2.53019,6.37131h-12.91526l-2.40032,5.93432h-8.8144L181.14634,.81757h8.50882l13.52641,30.54405h-8.98858l-2.40032-5.93432h.00002Z" style="fill: #fff;"/>
    <polygon points="209.45815 7.66711 200.0769 7.66711 200.0769 .81757 227.43531 .81757 227.43531 7.66711 218.09837 7.66711 218.09837 31.36162 209.45815 31.36162 209.45815 7.66711" style="fill: #fff;"/>
    <polygon points="259.72573 .81604 259.72573 31.36162 251.08704 31.36162 251.08704 19.44867 239.30548 19.44867 239.30548 31.36162 230.66526 31.36162 230.66526 .81604 239.30548 .81604 239.30548 12.29202 251.08704 12.29202 251.08704 .81604 259.72573 .81604" style="fill: #fff;"/>
    <g>
      <path d="M302.18427,16.08884c0-5.2804-3.62109-8.72731-8.24755-8.72731s-8.24755,3.44693-8.24755,8.72731,3.62109,8.72731,8.24755,8.72731,8.24755-3.44693,8.24755-8.72731m-25.22089,0c0-9.16275,7.19942-15.88394,16.97333-15.88394s16.97485,6.71966,16.97485,15.88394-7.19942,15.88394-16.97485,15.88394-16.97333-6.71966-16.97333-15.88394" style="fill: #fff;"/>
      <path d="M327.74739,7.62433h-4.80064v8.94427h4.80064c3.57833,0,5.36748-1.65776,5.36748-4.45074s-1.78915-4.49506-5.36748-4.49506m-.08708,15.62268h-4.71354v8.11615h-8.6387V.81604h13.96339c8.33465,0,13.57071,4.31935,13.57071,11.3018,0,4.49506-2.18183,7.81057-5.97863,9.64404l6.58826,9.59973h-9.25138l-5.54166-8.11615,.00155,.00002Z" style="fill: #fff;"/>
      <path d="M379.76136,15.4349h7.63486v12.65398c-3.53401,2.53171-8.37741,3.8839-12.82816,3.8839-9.73112,0-16.84346-6.58826-16.84346-15.88241S364.83694,.20643,374.74224,.20643c5.71584,0,10.34077,1.96333,13.35223,5.58597l-5.49735,4.97482c-2.09473-2.31323-4.49506-3.40414-7.41791-3.40414-5.23608,0-8.72731,3.44693-8.72731,8.72731s3.49122,8.72731,8.64023,8.72731c1.61346,0,3.14135-.30558,4.66924-1.00382V15.43647l-.00002-.00157Z" style="fill: #fff;"/>
    </g>
    <polygon points="392.44132 .81604 401.08001 .81604 401.08001 24.51057 415.65454 24.51057 415.65454 31.36162 392.44132 31.36162 392.44132 .81604" style="fill: #fff;"/>
    <g>
      <path d="M441.0863,16.08884c0-5.2804-3.62262-8.72731-8.24755-8.72731s-8.24755,3.44693-8.24755,8.72731,3.62262,8.72731,8.24755,8.72731,8.24755-3.44693,8.24755-8.72731m-25.22089,0c0-9.16275,7.19944-15.88394,16.97334-15.88394s16.97334,6.71966,16.97334,15.88394-7.19944,15.88394-16.97334,15.88394-16.97334-6.71966-16.97334-15.88394" style="fill: #fff;"/>
      <path d="M467.33848,7.62433h-4.80062v8.94427h4.80062c3.57831,0,5.36746-1.65776,5.36746-4.45074s-1.78915-4.49506-5.36746-4.49506m-.08706,15.62268h-4.71356v8.11615h-8.6387V.81604h13.96337c8.33465,0,13.57073,4.31935,13.57073,11.3018,0,4.49506-2.18183,7.81057-5.97862,9.64404l6.58828,9.59973h-9.25138l-5.54166-8.11615,.00153,.00002Z" style="fill: #fff;"/>
    </g>
    <polygon points="504.28898 .81757 497.04527 12.94749 489.80305 .81757 480.68308 .81757 492.33324 20.2783 492.33324 31.36162 500.97194 31.36162 500.97194 20.40819 512.66795 .81757 504.28898 .81757" style="fill: #fff;"/>
  </g>
  <g>
    <polygon points="105.72665 42.46481 105.72665 44.9782 109.99251 44.9782 109.99251 55.79718 113.07885 55.79718 113.07885 44.9782 117.34472 44.9782 117.34472 42.46481 105.72665 42.46481" style="fill: #fff;"/>
    <path d="M128.41276,44.9782h-2.51491v4.64785h2.51491c1.88542,0,2.83729-.87548,2.83729-2.32391s-.95187-2.32239-2.83729-2.32239m2.89382,10.81743l-2.57144-3.71431h-2.83729v3.71431h-3.08634v-13.33237h5.77084c3.56151,0,5.79071,1.84721,5.79071,4.83731,0,2-1.00993,3.46677-2.74256,4.20934l2.99008,4.28574h-3.31399v-.00002Z" style="fill: #fff;"/>
    <path d="M146.31657,45.4931l2.11459,5.10469h-4.22767l2.1146-5.10469h-.00153Zm-1.50497-3.02829l-5.9435,13.3339h3.1612l1.18106-2.85715h6.191l1.18106,2.85715h3.23912l-5.96183-13.3339h-3.04811Z" style="fill: #fff;"/>
    <rect x="159.02251" y="42.46328" width="3.0848" height="13.3339" style="fill: #fff;"/>
    <polygon points="178.26018 42.46481 178.26018 50.55957 171.63066 42.46481 169.07907 42.46481 169.07907 55.79718 172.12722 55.79718 172.12722 47.70242 178.77355 55.79718 181.30678 55.79718 181.30678 42.46481 178.26018 42.46481" style="fill: #fff;"/>
    <rect x="188.27854" y="42.46328" width="3.08633" height="13.3339" style="fill: #fff;"/>
    <polygon points="207.51774 42.46481 207.51774 50.55957 200.88975 42.46481 198.33664 42.46481 198.33664 55.79718 201.38479 55.79718 201.38479 47.70242 208.03111 55.79718 210.56588 55.79718 210.56588 42.46481 207.51774 42.46481" style="fill: #fff;"/>
    <g>
      <path d="M226.5476,48.92167h2.81895v5.41026c-1.46677,1.10466-3.48513,1.69442-5.3904,1.69442-4.19101,0-7.27581-2.87548-7.27581-6.89537s3.08633-6.89537,7.33387-6.89537c2.34225,0,4.28574,.80061,5.57986,2.30558l-1.98014,1.82888c-.97174-1.02827-2.09473-1.50497-3.44693-1.50497-2.5913,0-4.36213,1.73415-4.36213,4.26741s1.77082,4.26588,4.32394,4.26588c.83881,0,1.61956-.15279,2.40031-.57143v-3.9053h-.00151Z" style="fill: #fff;"/>
      <path d="M244.39489,49.13099c0-4.01989,3.0848-6.89537,7.23761-6.89537,2.30558,0,4.22921,.83881,5.48513,2.36211l-1.98014,1.82888c-.89534-1.02827-2.01987-1.5615-3.35218-1.5615-2.49504,0-4.26588,1.75249-4.26588,4.26588s1.77082,4.26588,4.26588,4.26588c1.33385,0,2.45837-.53323,3.35218-1.58136l1.98014,1.82888c-1.25592,1.54164-3.18106,2.38045-5.50499,2.38045-4.13295,0-7.21775-2.87548-7.21775-6.89537" style="fill: #fff;"/>
    </g>
    <polygon points="263.00458 42.46481 263.00458 55.79718 272.77545 55.79718 272.77545 53.28228 266.09093 53.28228 266.09093 42.46481 263.00458 42.46481" style="fill: #fff;"/>
    <g>
      <path d="M278.03293,49.93008v-7.4668h3.08633v7.35221c0,2.53323,1.10466,3.58137,2.97174,3.58137s2.97174-1.04813,2.97174-3.58137v-7.35221h3.04813v7.4668c0,3.92363-2.24752,6.09476-6.03822,6.09476s-6.03822-2.17113-6.03822-6.09476" style="fill: #fff;"/>
      <path d="M306.09108,51.83537c0-1.12452-.85716-1.65623-2.45837-1.65623h-3.59972v3.29565h3.59972c1.60124,0,2.45837-.49503,2.45837-1.63789m-6.05654-7.04969v3.14286h3.06647c1.50497,0,2.32393-.53323,2.32393-1.58136s-.81897-1.5615-2.32391-1.5615h-3.06649Zm9.16122,7.37207c0,2.30405-1.82888,3.63792-5.33232,3.63792h-6.89537v-13.33237h6.5134c3.33387,0,5.04815,1.39038,5.04815,3.46677,0,1.33385-.68602,2.36211-1.77084,2.93354,1.4851,.4767,2.43851,1.61956,2.43851,3.29565" style="fill: #fff;"/>
    </g>
  </g>
  <path d="M23.11638,31.01799l19.39927,20.66941H3.7181L23.11737,31.01799h-.00099Zm41.86274,0l19.39927,20.66941H45.58084l19.39927-20.66941h-.00099Zm-38.86502-3.19318L44.04775,8.71727l17.93366,19.10754-17.93366,19.10755L26.11409,27.82481ZM88.09552,.00099l-23.11639,24.63062L44.04776,2.32989,23.1164,24.63161,0,.00099V20.05318H4.37104V11.04616l15.74764,16.77962L4.37104,44.60541V28.49658H0v27.56285H88.09552V28.49658h-9.88718v4.37104h5.51614v11.73681l-15.74863-16.77962,15.74863-16.77962v9.00702h4.37104V.00099Z" style="fill: #fff;"/>
</svg>