<?xml version="1.0" encoding="UTF-8"?>
<svg id="Layer_1" data-name="Layer 1" xmlns="http://www.w3.org/2000/svg" viewBox="0 0 1812.11006 646.79043">
  <g>
    <path d="M62.76409,490.0605c23.12577,0,38.66541-13.79792,38.66541-37.31145s-15.54645-37.30463-38.66541-37.30463h-24.28919v74.61616h24.28919v-.00008ZM0,384.73925H64.31534c45.07449,0,75.97687,26.22828,75.97687,68.00291s-30.89559,68.00972-75.97687,68.00972H0v-136.01263Z" style="fill: #fff;"/>
    <polygon points="265.65712 491.02665 265.65712 520.75877 156.45099 520.75877 156.45099 384.74606 263.12614 384.74606 263.12614 414.47145 194.53808 414.47145 194.53808 437.39987 254.96852 437.39987 254.96852 466.1523 194.53808 466.1523 194.53808 491.02665 265.65712 491.02665" style="fill: #fff;"/>
    <path d="M371.98527,465.96178l-17.48551-43.52322-17.48551,43.52322h34.97101Zm11.26692,28.37146h-57.51166l-10.68862,26.42553h-39.25052l60.04262-136.01271h37.88978l60.2331,136.01271h-40.02615l-10.68862-26.42553h.00008Z" style="fill: #fff;"/>
    <polygon points="461.91652 415.24708 420.14181 415.24708 420.14181 384.74606 541.96883 384.74606 541.96883 415.24708 500.39141 415.24708 500.39141 520.75877 461.91652 520.75877 461.91652 415.24708" style="fill: #fff;"/>
    <polygon points="685.75812 384.73925 685.75812 520.75877 647.29 520.75877 647.29 467.71037 594.82671 467.71037 594.82671 520.75877 556.35181 520.75877 556.35181 384.73925 594.82671 384.73925 594.82671 435.8418 647.29 435.8418 647.29 384.73925 685.75812 384.73925" style="fill: #fff;"/>
    <g>
      <path d="M874.82603,452.74905c0-23.51361-16.12473-38.86271-36.72634-38.86271s-36.72634,15.34918-36.72634,38.86271,16.12473,38.86271,36.72634,38.86271,36.72634-15.34918,36.72634-38.86271m-112.30866,0c0-40.80174,32.05901-70.7312,75.58223-70.7312s75.58905,29.92264,75.58905,70.7312-32.05901,70.7312-75.58905,70.7312-75.58223-29.92264-75.58223-70.7312" style="fill: #fff;"/>
      <path d="M988.65863,415.05656h-21.37724v39.82886h21.37724c15.93429,0,23.90139-7.38199,23.90139-19.81917s-7.9671-20.0165-23.90139-20.0165m-.38777,69.56779h-20.98939v36.14123h-38.46812v-136.01952h62.17899c37.11419,0,60.43039,19.23406,60.43039,50.32692,0,20.0165-9.7157,34.78049-26.62287,42.94493l29.33753,42.74759h-41.19641l-24.67702-36.14123,.00689,.00008Z" style="fill: #fff;"/>
      <path d="M1220.27688,449.83705h33.99805v56.34817c-15.73695,11.27369-37.30463,17.29502-57.1238,17.29502-43.3327,0-75.00394-29.33753-75.00394-70.72439s31.67124-70.7312,75.77957-70.7312c25.45265,0,46.04745,8.74273,59.45751,24.87435l-24.47968,22.15287c-9.32784-10.30081-20.0165-15.15865-33.03198-15.15865-23.31628,0-38.86271,15.34918-38.86271,38.86271s15.54643,38.86271,38.47493,38.86271c7.18474,0,13.98844-1.36074,20.79213-4.46999v-37.30463l-.00008-.00698Z" style="fill: #fff;"/>
    </g>
    <polygon points="1276.74075 384.73925 1315.20887 384.73925 1315.20887 490.25102 1380.10926 490.25102 1380.10926 520.75877 1276.74075 520.75877 1276.74075 384.73925" style="fill: #fff;"/>
    <g>
      <path d="M1493.35691,452.74905c0-23.51361-16.13154-38.86271-36.72634-38.86271s-36.72634,15.34918-36.72634,38.86271,16.13154,38.86271,36.72634,38.86271,36.72634-15.34918,36.72634-38.86271m-112.30866,0c0-40.80174,32.05909-70.7312,75.58232-70.7312s75.58232,29.92264,75.58232,70.7312-32.05909,70.7312-75.58232,70.7312-75.58232-29.92264-75.58232-70.7312" style="fill: #fff;"/>
      <path d="M1610.25789,415.05656h-21.37716v39.82886h21.37716c15.9342,0,23.9013-7.38199,23.9013-19.81917s-7.9671-20.0165-23.9013-20.0165m-.38769,69.56779h-20.98947v36.14123h-38.46812v-136.01952h62.1789c37.11419,0,60.43047,19.23406,60.43047,50.32692,0,20.0165-9.7157,34.78049-26.62278,42.94493l29.33762,42.74759h-41.19641l-24.67702-36.14123,.00681,.00008Z" style="fill: #fff;"/>
    </g>
    <polygon points="1774.79853 384.74606 1742.54227 438.76061 1710.29265 384.74606 1669.68143 384.74606 1721.55961 471.40473 1721.55961 520.75877 1760.02774 520.75877 1760.02774 471.98311 1812.11006 384.74606 1774.79853 384.74606" style="fill: #fff;"/>
  </g>
  <g>
    <polygon points="453.02753 586.40081 453.02753 597.59294 472.02344 597.59294 472.02344 645.76987 485.76691 645.76987 485.76691 597.59294 504.76282 597.59294 504.76282 586.40081 453.02753 586.40081" style="fill: #fff;"/>
    <path d="M554.04879,597.59294h-11.1989v20.69687h11.1989c8.39578,0,12.63447-3.8985,12.63447-10.34839s-4.23869-10.34158-12.63447-10.34158m12.8862,48.17003l-11.45063-16.53982h-12.63447v16.53982h-13.74347v-59.36906h25.69757c15.85941,0,25.78602,8.22565,25.78602,21.54052,0,8.90601-4.49723,15.43755-12.21264,18.74422l13.31484,19.0844h-14.75722v-.00008Z" style="fill: #fff;"/>
    <path d="M633.7745,599.88579l9.41629,22.73117h-18.82581l9.41633-22.73117h-.00681Zm-6.70162-13.48497l-26.46639,59.37587h14.07685l5.25924-12.72288h27.56855l5.25924,12.72288h14.4238l-26.54803-59.37587h-13.57326Z" style="fill: #fff;"/>
    <rect x="690.35405" y="586.394" width="13.73662" height="59.37587" style="fill: #fff;"/>
    <polygon points="776.01941 586.40081 776.01941 622.44678 746.49817 586.40081 735.13594 586.40081 735.13594 645.76987 748.70937 645.76987 748.70937 609.7239 778.30545 645.76987 789.58594 645.76987 789.58594 586.40081 776.01941 586.40081" style="fill: #fff;"/>
    <rect x="820.63121" y="586.394" width="13.74343" height="59.37587" style="fill: #fff;"/>
    <polygon points="906.30338 586.40081 906.30338 622.44678 876.78894 586.40081 865.41991 586.40081 865.41991 645.76987 878.99333 645.76987 878.99333 609.7239 908.58941 645.76987 919.87672 645.76987 919.87672 586.40081 906.30338 586.40081" style="fill: #fff;"/>
    <g>
      <path d="M991.04336,615.15324h12.55279v24.09191c-6.53153,4.91906-15.51927,7.54528-24.00346,7.54528-18.66257,0-32.3992-12.80452-32.3992-30.70508s13.74343-30.70508,32.65774-30.70508c10.43004,0,19.0844,3.56513,24.84711,10.26675l-8.81756,8.144c-4.32714-4.57887-9.32784-6.70162-15.34918-6.70162-11.53904,0-19.42459,7.72218-19.42459,19.00276s7.88546,18.99595,19.25449,18.99595c3.73522,0,7.2119-.68037,10.68858-2.54458v-17.39029h-.00673Z" style="fill: #fff;"/>
      <path d="M1070.51737,616.08534c0-17.90056,13.73662-30.70508,32.2291-30.70508,10.26675,0,18.83267,3.73522,24.42528,10.51849l-8.81756,8.144c-3.98696-4.57887-8.99447-6.95336-14.92727-6.95336-11.11041,0-18.99595,7.80382-18.99595,18.99595s7.88546,18.99595,18.99595,18.99595c5.93961,0,10.94712-2.37448,14.92727-7.04181l8.81756,8.144c-5.59262,6.86491-14.16526,10.60013-24.51374,10.60013-18.40403,0-32.14065-12.80452-32.14065-30.70508" style="fill: #fff;"/>
    </g>
    <polygon points="1153.38634 586.40081 1153.38634 645.76987 1196.89603 645.76987 1196.89603 634.57102 1167.12986 634.57102 1167.12986 586.40081 1153.38634 586.40081" style="fill: #fff;"/>
    <g>
      <path d="M1220.30757,619.64366v-33.24966h13.74343v32.73938c0,11.2805,4.91906,15.94782,13.23316,15.94782s13.23316-4.66733,13.23316-15.94782v-32.73938h13.57334v33.24966c0,17.47193-10.00821,27.13995-26.88822,27.13995s-26.88822-9.66803-26.88822-27.13995" style="fill: #fff;"/>
      <path d="M1345.25057,628.12794c0-5.00751-3.81695-7.37518-10.94712-7.37518h-16.02955v14.67554h16.02955c7.13034,0,10.94712-2.20439,10.94712-7.29354m-26.96978-31.39226v13.99517h13.65498c6.70162,0,10.34848-2.37448,10.34848-7.04181s-3.64685-6.95336-10.34839-6.95336h-13.65506Zm40.79493,32.82783c0,10.25994-8.144,16.19964-23.74483,16.19964h-30.70508v-59.36906h29.00416c14.84571,0,22.47944,6.19135,22.47944,15.43755,0,5.93961-3.05485,10.51849-7.88554,13.06306,6.61317,2.12275,10.85867,7.2119,10.85867,14.67554" style="fill: #fff;"/>
    </g>
  </g>
  <path d="M783.0308,162.44101l101.59387,108.24557h-203.18254l101.59387-108.24557h-.0052Zm219.2349,0l101.59387,108.24557h-203.18254l101.59387-108.24557h-.0052Zm-203.53587-16.72268l93.91846-100.06606,93.91846,100.06606-93.91846,100.0661-93.91846-100.0661ZM1123.32614,.00517l-121.06038,128.99042L892.64835,12.20162l-109.61742,116.79398L661.97052,.00517V105.01839h22.89109V57.84869l82.47029,87.87479-82.47032,87.87479v-84.36187h-22.89109v144.34645h461.35566V149.23639h-51.7791v22.89113h28.88798v61.46561l-82.47549-87.87479,82.47549-87.87479v47.16971h22.89113V.00517Z" style="fill: #fff;"/>
</svg>